<?xml version="1.0" encoding="UTF-8"?><svg xmlns="http://www.w3.org/2000/svg" height="679.83" viewBox="0 0 698.07 679.83" width="698.07"><defs><linearGradient gradientUnits="userSpaceOnUse" id="a" x1="-60.32" x2="819.92" y1="339.92" y2="339.92"><stop offset="0" stop-color="#bd6513"/><stop offset=".21" stop-color="#ffd871"/><stop offset=".43" stop-color="#bd6513"/><stop offset=".63" stop-color="#ffd871"/><stop offset=".8" stop-color="#bd6513"/><stop offset="1" stop-color="#ffd871"/></linearGradient></defs><g><path d="M265.74,11.1C78.79,58.53-35.86,244.69,10.16,426.07c9.94,39.18,26.97,75.53,50.07,108.44l.83-.59-.83,.59c39.57,56.37,95.36,99.05,161.32,123.44,67.43,24.93,140.4,28.64,211.03,10.72,186.77-47.39,301.31-233.36,255.33-414.56h0C641.89,72.72,452.69-36.34,265.74,11.1Zm103.26,638.82c7.91-2.01,14.32-4.02,18.97-5.62,30.98-10.68,47.3-38.92,64.57-68.83,19.95-34.54,42.57-73.69,92.35-91.92,42.16-15.43,80.65-32.07,108.04-59.09-26.59,28-63.71,45.64-103.06,61.56-47.45,19.19-70.89,56.81-91.58,90-18.56,29.78-36.09,57.91-67.81,68.54-28.29,9.48-61.55,15-96.82,14.2,31.06,.33,57.18-4.23,75.34-8.84Zm-26.25,3.55c7.95-1.36,15.15-2.93,21.42-4.52,8.81-2.23,15.85-4.5,20.82-6.27,29.84-10.61,44.89-38.82,60.82-68.68,19.24-36.07,41.04-76.94,93.55-94.25,43.12-14.21,81.39-28.28,109.87-53.78-27.03,25.41-64.21,41.4-104.83,56.27-50.26,18.4-73.01,57.79-93.08,92.54-17.14,29.67-33.32,57.69-63.81,68.2-5.18,1.78-21.39,6.95-44.76,10.49Zm212.58-163.67c-44.59,19.85-68.59,55.66-89.76,87.25-20.08,29.98-39.06,58.29-72.12,69.08-25.74,8.4-55.54,13.52-87.16,13.79,27.75-.55,51.01-4.81,67.41-8.97,7.09-1.8,12.9-3.58,17.23-5.03,32.21-10.79,49.88-39.14,68.58-69.14,20.57-33,43.88-70.41,90.89-89.43,40.43-16.35,78.52-34.51,105.38-63.74-26.08,30.28-62.85,49.45-100.46,66.19Zm102.7-66.45c-25.53,32.3-61.72,52.91-97.24,70.24-41.67,20.33-64.99,52.82-87.55,84.25-21.73,30.28-42.26,58.88-76.82,69.88-25.93,8.25-55.87,13.24-87.6,13.43,28.83-.48,52.87-4.89,69.49-9.11,6.32-1.6,11.58-3.18,15.61-4.5,33.56-10.95,52.67-39.47,72.9-69.66,22.09-32.97,44.93-67.05,89.12-86.72,38.34-17.06,75.8-36.64,102.1-67.81Zm-276.09,230.09c5.06-1.28,10.05-2.71,14.94-4.26,35.04-11.16,55.72-39.96,77.6-70.45,22.45-31.27,45.66-63.61,86.98-83.76,33.22-16.21,69.96-36.91,96.05-68.41-23.6,30.58-56.51,52.3-91.26,70.83-38.67,20.61-62.15,51.27-84.87,80.92-23.53,30.72-45.76,59.73-81.99,71-28.66,8.92-62.09,14-97.43,13.08,27.35,.49,54.64-2.51,79.99-8.94Zm4.38,1.17c4.57-1.16,9.09-2.43,13.53-3.81,36.71-11.42,59.09-40.63,82.78-71.55,22.61-29.52,45.99-60.03,84.36-80.49,33.4-17.81,75.04-43.38,100.75-83.41,1.17-1.82,2.26-3.69,3.35-5.55-22.56,40.89-59.71,68.3-99.38,91.36-35.57,20.67-58.96,49.4-81.58,77.18-25.52,31.33-49.62,60.93-87.77,72.53-28.24,8.59-61.02,13.5-95.67,12.79,27.23,.37,54.37-2.65,79.63-9.06Zm20.91,6.31c2.51-.64,5-1.31,7.49-2,50.78-14.26,85.63-49.69,122.52-87.2,17.92-18.22,36.45-37.07,57.41-53.99,42.31-34.17,71.2-72.28,86.92-114.92-14.68,43.04-42.13,81.95-82.58,117.34-16.2,14.17-31.41,29.28-46.12,43.9-41.09,40.82-79.9,79.38-135.65,94.75-12.7,3.51-26,6.22-39.69,8.13,10.03-1.54,19.95-3.52,29.71-5.99Zm-35.37,4.95c10.52-1.55,20.92-3.62,31.13-6.21,2.93-.74,5.86-1.53,8.76-2.36,46.7-13.36,78.21-46.59,111.59-81.76,20.02-21.1,40.72-42.93,65.78-61.6,37.61-28.02,64.98-58.54,82.55-92.44-16.62,34.65-42.6,66.15-78.13,94.85-21.04,16.99-39.61,35.87-57.56,54.12-36.72,37.34-71.4,72.61-121.73,86.74-13.53,3.8-27.72,6.71-42.38,8.67Zm18.25-9.9c4.28-1.09,8.52-2.27,12.72-3.54,38.62-11.75,62.87-41.53,88.55-73.06,22.53-27.67,45.83-56.28,81.14-76.81,47.76-27.76,77.77-54.83,97.28-87.76-22.17,40.1-57.13,67.71-92.63,90.15-32.33,20.44-55.31,47.11-77.53,72.9-27.73,32.19-53.93,62.58-94.3,74.61-19.04,5.67-40.11,9.67-62.37,11.49,16.04-1.44,31.84-4.1,47.15-7.98Zm4.33,1.21c3.81-.97,7.61-2.01,11.36-3.13,40.84-12.16,67.19-42.74,95.09-75.11,22.14-25.7,45.04-52.27,77.16-72.58,44.32-28.02,73.78-56.65,92.5-89.84-21.67,41.36-55.57,70.01-87.93,92.23-28.89,19.84-51.04,44.26-72.46,67.87-30.26,33.36-58.84,64.87-101.86,77.42-16.37,4.79-33.78,8.24-51.84,10.19,12.88-1.57,25.58-3.9,37.98-7.05Zm4.28,1.23c3.37-.85,6.72-1.77,10.05-2.74,43.47-12.68,72.21-44.36,102.64-77.91,21.36-23.54,43.44-47.88,72.17-67.62,30-20.6,61.32-46.68,83.13-83.19-17.51,31.19-43.6,59.49-78.63,85.59-25.18,18.76-45.93,40.64-66.01,61.79-33.2,35-64.56,68.05-110.8,81.28-14.43,4.13-29.65,7.2-45.38,9.19,11.11-1.56,22.09-3.67,32.84-6.4Zm12.74,3.78c2.08-.53,4.16-1.08,6.23-1.65,56.21-15.5,95.19-54.22,136.45-95.21,14.69-14.6,29.88-29.69,46.04-43.82,34.53-30.21,59.63-62.99,75.48-98.68-14.91,36.46-38.65,70.24-71.23,101.1-10.12,9.59-20.12,19.5-29.8,29.08-46.79,46.36-90.98,90.14-154.45,107.34-17.27,4.68-34.72,7.87-52.18,9.7,14.7-1.66,29.24-4.27,43.46-7.87Zm4.23,1.28c1.66-.42,3.33-.86,4.98-1.31,63.95-17.33,108.31-61.28,155.28-107.81,9.67-9.58,19.67-19.48,29.77-29.06,32.85-31.12,56.77-65.17,71.77-101.94-14.06,37.56-36.64,72.62-67.6,104.39l-4.63,4.76c-52.31,53.72-106.4,109.27-182.1,129.44-1.29,.34-2.56,.67-3.85,1-13.66,3.47-27.42,6-41.19,7.72,12.68-1.69,25.25-4.06,37.58-7.19Zm4.02,1.34c1.31-.33,2.63-.67,3.94-1.02,76.22-20.3,130.49-76.04,182.98-129.95l4.63-4.76c31.15-31.96,53.87-67.23,68.02-105.01-13.2,38.59-34.61,74.88-63.94,107.49-47.94,53.31-107.91,110.67-189.22,131.97-.86,.23-1.7,.44-2.56,.66-9.27,2.35-18.58,4.27-27.91,5.82,8.05-1.44,16.08-3.17,24.05-5.19Zm12.36,1.87c-9.19,2.33-18.42,4.26-27.66,5.83,8.11-1.47,16.2-3.2,24.25-5.25l.94-.24c71.49-18.51,136.33-62.38,192.74-130.4,26.6-32.07,46.29-67.17,58.87-104.14-34.32,110.96-125.9,202.92-249.13,234.19Zm188.73-131.32c-56.13,67.69-120.63,111.34-191.7,129.74l-.9,.23c-8.96,2.27-17.95,4.16-26.97,5.71,7.62-1.4,15.21-3.03,22.76-4.95,.88-.22,1.75-.45,2.63-.68,81.81-21.43,142.05-79.03,190.18-132.55,34.22-38.05,57.74-81.07,70.07-126.92-11.32,46.27-33.48,90.13-66.07,129.42Zm66.09-276.73c.17,.71,.33,1.42,.49,2.13,.17,.78,.35,1.56,.52,2.34,.14,.65,.28,1.3,.41,1.95,.13,.67,.28,1.35,.41,2.01,.11,.55,.2,1.1,.3,1.64,.14,.75,.26,1.5,.4,2.25,.02,.11,.04,.23,.06,.34,.26,1.53,.5,3.04,.73,4.56,.01,.07,.02,.14,.03,.21,.33,2.28,.63,4.54,.91,6.79,.05,.41,.11,.84,.16,1.25,.13,1.2,.31,2.44,.43,3.64,.03,.32,.05,.62,.09,.94,.31,3.19,.54,6.32,.74,9.42,.06,1.07,.13,2.13,.18,3.19,.12,2.26,.19,4.48,.25,6.68,.04,1.7,.06,3.38,.07,5.05,0,.21,0,.42,0,.63,0,.49-.01,.96-.01,1.45-1.41,113.01-82.03,139.59-154.12,163.35-53.03,17.47-74.97,58.61-94.33,94.9-15.8,29.63-30.73,57.61-60.07,68.04-14.45,5.14-116.13,37.88-219.13-15.94-13.1-6.98-26.02-15.16-38.6-24.72-.5-.38-.99-.75-1.49-1.14-2.08-1.6-4.15-3.29-6.21-4.96-1.95-1.6-3.9-3.19-5.82-4.85-.81-.69-1.61-1.41-2.42-2.11-2.88-2.53-5.74-5.1-8.56-7.76,0,0,0,0-.01-.01,0,0,0,0,0,0-3.1-2.93-6.15-5.96-9.17-9.06-.34-.36-.69-.71-1.03-1.07-2.43-2.52-4.82-5.11-7.19-7.74-1.04-1.16-2.08-2.32-3.11-3.5-1.06-1.2-2.09-2.44-3.13-3.67-.44-.52-.89-1.04-1.33-1.56-.19-.23-.39-.46-.58-.69-1.36-1.64-2.73-3.28-4.06-4.95-.16-.21-.33-.4-.5-.61-.1-.12-.19-.24-.28-.36-.39-.5-.78-1.01-1.17-1.51-.99-1.26-1.96-2.55-2.94-3.84-.21-.28-.43-.57-.64-.85-.41-.55-.82-1.1-1.23-1.65-.31-.43-.63-.85-.94-1.28-1.03-1.41-2.09-2.8-3.1-4.23h0c-22.91-32.64-39.25-69.08-49.11-107.93C-32.86,245.47,80.91,60.8,266.41,13.73c185.49-47.07,373.88,60.94,419.53,240.87h0c.34,1.34,.64,2.69,.97,4.03Z" fill="url(#a)"/></g></svg>